<?xml version="1.0" encoding="UTF-8"?>
<svg version="1.1" xmlns="http://www.w3.org/2000/svg" width="500" height="353">
<path d="M0 0 C0.78944 -0.00570007 1.57888 -0.01140015 2.39224243 -0.01727295 C4.05786832 -0.02666461 5.7235123 -0.03323352 7.38916016 -0.03710938 C9.87307522 -0.04671647 12.35612559 -0.07775416 14.83984375 -0.109375 C33.78765635 -0.23423296 57.90394107 1.32978844 72.41796875 14.96875 C77.36704044 20.45446801 79.11027806 25.25112839 78.90234375 32.66015625 C77.52709963 42.28686511 67.71699022 49.8969696 60.5625 55.55859375 C46.93901248 65.37899852 31.66616141 71.57349393 16.0390625 77.453125 C13.65976292 78.35361032 11.28147961 79.25658607 8.90490723 80.16424561 C7.44624291 80.7208546 5.98599575 81.27334298 4.52380371 81.82061768 C0.30649468 83.42405915 -3.64931846 85.26443452 -7.6048584 87.43963623 C-9.4609375 88.203125 -9.4609375 88.203125 -13.4609375 88.203125 C-12.85240887 84.887566 -11.70990515 82.91985075 -9.6171875 80.296875 C-9.03404785 79.55816162 -8.4509082 78.81944824 -7.85009766 78.05834961 C-7.2266748 77.28112549 -6.60325195 76.50390137 -5.9609375 75.703125 C-4.68675517 74.09043196 -3.41331941 72.47714878 -2.140625 70.86328125 C-1.51510742 70.07324707 -0.88958984 69.28321289 -0.24511719 68.46923828 C2.18032784 65.38864431 4.55912628 62.27531548 6.9140625 59.140625 C7.97753906 57.73103516 7.97753906 57.73103516 9.0625 56.29296875 C10.63523629 54.49348005 10.63523629 54.49348005 10.5390625 53.203125 C8.08172012 52.71836391 5.62336342 52.24026566 3.1640625 51.765625 C2.14505859 51.56356445 2.14505859 51.56356445 1.10546875 51.35742188 C-29.77669008 45.44074659 -59.59843531 49.46388139 -86.0078125 66.7734375 C-104.58523026 79.54123679 -114.55915516 101.96057068 -118.86889648 123.54760742 C-121.91386454 140.71299463 -121.35584613 158.92860915 -119.4609375 176.203125 C-118.19121094 176.16832031 -116.92148438 176.13351563 -115.61328125 176.09765625 C-97.36618572 175.74311885 -77.5366331 177.8963533 -62.4609375 189.203125 C-62.1309375 158.183125 -61.8009375 127.163125 -61.4609375 95.203125 C-53.8709375 95.203125 -46.2809375 95.203125 -38.4609375 95.203125 C-37.09109911 97.94280179 -37.33125155 100.14323599 -37.328125 103.20703125 C-37.32683594 104.42326172 -37.32554687 105.63949219 -37.32421875 106.89257812 C-37.32808594 108.17068359 -37.33195313 109.44878906 -37.3359375 110.765625 C-37.33207031 112.01666016 -37.32820312 113.26769531 -37.32421875 114.55664062 C-37.32615234 116.39452148 -37.32615234 116.39452148 -37.328125 118.26953125 C-37.32925293 119.38271729 -37.33038086 120.49590332 -37.33154297 121.64282227 C-37.48421864 125.84370773 -37.99672103 130.02517675 -38.4609375 134.203125 C-28.2309375 134.203125 -18.0009375 134.203125 -7.4609375 134.203125 C-7.4609375 121.333125 -7.4609375 108.463125 -7.4609375 95.203125 C-0.30551997 91.62541624 8.54731418 94.83986371 16.5390625 95.203125 C16.5390625 127.873125 16.5390625 160.543125 16.5390625 194.203125 C13.3616397 194.9974807 11.20841846 195.33126975 8.02734375 195.3359375 C7.18751953 195.33722656 6.34769531 195.33851563 5.48242188 195.33984375 C4.61423828 195.33597656 3.74605469 195.33210937 2.8515625 195.328125 C1.53188477 195.33392578 1.53188477 195.33392578 0.18554688 195.33984375 C-0.65041016 195.33855469 -1.48636719 195.33726562 -2.34765625 195.3359375 C-3.11295654 195.33480957 -3.87825684 195.33368164 -4.66674805 195.33251953 C-6.4609375 195.203125 -6.4609375 195.203125 -7.4609375 194.203125 C-7.54958958 191.3187868 -7.57615046 188.45850342 -7.55859375 185.57421875 C-7.55647133 184.27787254 -7.55647133 184.27787254 -7.55430603 182.95533752 C-7.54868989 180.18373208 -7.53613469 177.4122062 -7.5234375 174.640625 C-7.51842458 172.7662772 -7.51386131 170.89192815 -7.50976562 169.01757812 C-7.49956431 164.41270479 -7.47999217 159.8080044 -7.4609375 155.203125 C-17.6909375 155.203125 -27.9209375 155.203125 -38.4609375 155.203125 C-38.37714844 157.92304688 -38.29335937 160.64296875 -38.20703125 163.4453125 C-38.12967658 166.07304485 -38.05412975 168.70082335 -37.97875977 171.32861328 C-37.92531455 173.15809666 -37.86998325 174.98752593 -37.81274414 176.81689453 C-37.73090339 179.44291516 -37.65579654 182.06905419 -37.58203125 184.6953125 C-37.54147865 185.92663406 -37.54147865 185.92663406 -37.50010681 187.18283081 C-37.34706579 192.97538159 -37.34706579 192.97538159 -38.4609375 195.203125 C-40.56503389 195.23013908 -42.66922928 195.24952723 -44.7734375 195.265625 C-45.94519531 195.27722656 -47.11695313 195.28882813 -48.32421875 195.30078125 C-51.4609375 195.203125 -51.4609375 195.203125 -54.4609375 194.203125 C-54.03796387 194.91106201 -54.03796387 194.91106201 -53.60644531 195.63330078 C-42.69270564 214.07761021 -38.43489246 229.61685528 -40.4609375 251.203125 C0.38677846 252.21830733 0.38677846 252.21830733 39.46899414 241.69140625 C42.49860553 240.97679099 44.56348347 241.32213269 47.5390625 242.203125 C49.42944336 244.27270508 49.42944336 244.27270508 51.00390625 246.97265625 C51.57560547 247.94396484 52.14730469 248.91527344 52.73632812 249.91601562 C53.31060547 250.93888672 53.88488281 251.96175781 54.4765625 253.015625 C55.07791016 254.02689453 55.67925781 255.03816406 56.29882812 256.08007812 C60.61074989 263.55308801 60.61074989 263.55308801 60.29370117 266.42797852 C58.57040836 270.48170288 54.01578931 272.74201811 50.5390625 275.203125 C49.5078125 275.94691406 48.4765625 276.69070313 47.4140625 277.45703125 C30.99046152 289.01481644 12.74375078 298.30339753 -6.4609375 304.203125 C-7.15864258 304.42468262 -7.85634766 304.64624023 -8.57519531 304.87451172 C-29.00284822 311.12934209 -52.92143405 309.82858556 -73.5859375 305.078125 C-80.0620455 303.61577803 -83.90571571 304.10146469 -89.8984375 306.953125 C-102.58732812 312.74010859 -115.60819864 315.38034581 -129.55078125 315.30078125 C-130.49530655 315.2993663 -131.43983185 315.29795135 -132.41297913 315.29649353 C-135.40816513 315.2909286 -138.40327437 315.27838267 -141.3984375 315.265625 C-143.43814996 315.26060546 -145.47786359 315.25604335 -147.51757812 315.25195312 C-152.49872716 315.24097067 -157.47981935 315.2237304 -162.4609375 315.203125 C-163.92557061 312.27385878 -163.59276458 309.65055719 -163.5859375 306.390625 C-163.58980469 304.55564453 -163.58980469 304.55564453 -163.59375 302.68359375 C-163.4609375 299.203125 -163.4609375 299.203125 -162.98291016 297.06225586 C-159.99603912 280.7015231 -157.89533994 254.25419208 -167.5234375 240.078125 C-168.99248747 238.05129475 -170.50159518 236.07596305 -172.06738281 234.12304688 C-174.47515625 230.80582012 -175.91525933 227.12779825 -177.3984375 223.328125 C-177.67598877 222.63307861 -177.95354004 221.93803223 -178.23950195 221.22192383 C-180.35110989 215.79161205 -182.04462531 210.27686764 -183.5390625 204.64453125 C-184.31132281 201.88220622 -184.31132281 201.88220622 -187.4609375 200.203125 C-187.12320313 199.6875 -186.78546875 199.171875 -186.4375 198.640625 C-185.09870394 195.29899004 -185.50594759 192.78168222 -185.8359375 189.203125 C-189.47741909 141.93473147 -176.39464537 98.49236729 -145.96582031 61.95556641 C-113.54597058 24.20253568 -48.97788625 0.28379722 0 0 Z M-111.4609375 200.203125 C-107.93802166 215.07765854 -92.91263065 227.9992086 -80.67578125 236.03125 C-76.36380002 239.02370812 -76.36380002 239.02370812 -71.4609375 240.203125 C-70.60167907 230.32165306 -75.34734939 222.41517947 -81.19921875 214.74609375 C-87.3436536 207.8375841 -97.37863276 201.1621871 -106.7109375 199.8984375 C-108.79912408 199.85306279 -108.79912408 199.85306279 -111.4609375 200.203125 Z M-132.4609375 280.203125 C-132.65500228 281.84819718 -132.84101685 283.49422094 -133.0234375 285.140625 C-133.12785156 286.05714844 -133.23226562 286.97367187 -133.33984375 287.91796875 C-133.37980469 288.67207031 -133.41976562 289.42617188 -133.4609375 290.203125 C-131.91143482 291.75262768 -130.36103156 291.41967693 -128.20703125 291.51953125 C-127.35302734 291.56142578 -126.49902344 291.60332031 -125.61914062 291.64648438 C-124.72130859 291.68580078 -123.82347656 291.72511719 -122.8984375 291.765625 C-121.99673828 291.80880859 -121.09503906 291.85199219 -120.16601562 291.89648438 C-117.93115265 292.00290642 -115.69617442 292.10492488 -113.4609375 292.203125 C-117.18034199 289.09896035 -121.07633405 286.4617608 -125.2109375 283.953125 C-125.80003906 283.58960938 -126.38914062 283.22609375 -126.99609375 282.8515625 C-129.55163861 281.0005014 -129.55163861 281.0005014 -132.4609375 280.203125 Z " fill="#EEEEEE" transform="translate(198.4609375,14.796875)"/>
<path d="M0 0 C0 6.93 0 13.86 0 21 C-10.56 21 -21.12 21 -32 21 C-32 21.66 -32 22.32 -32 23 C-32.66 23 -33.32 23 -34 23 C-33.88623383 25.12563103 -33.75864369 27.2505261 -33.625 29.375 C-33.52058594 31.15003906 -33.52058594 31.15003906 -33.4140625 32.9609375 C-33.29782654 36.10562319 -33.29782654 36.10562319 -31 38 C-27.99027343 38.37296556 -27.99027343 38.37296556 -24.4609375 38.4140625 C-23.15898437 38.45273438 -21.85703125 38.49140625 -20.515625 38.53125 C-19.13542138 38.56270763 -17.75521296 38.59395491 -16.375 38.625 C-14.98695459 38.66317934 -13.59893289 38.70223105 -12.2109375 38.7421875 C-8.80751973 38.83672688 -5.40377788 38.91946229 -2 39 C-2 45.93 -2 52.86 -2 60 C-12.56 60 -23.12 60 -34 60 C-34 66.27 -34 72.54 -34 79 C-33.01 78.67 -32.02 78.34 -31 78 C-28.64163647 77.98391737 -26.28260995 78.03451637 -23.92578125 78.12109375 C-22.90003242 78.15651024 -22.90003242 78.15651024 -21.8535614 78.19264221 C-19.67298774 78.2691145 -17.49278405 78.35320881 -15.3125 78.4375 C-13.8327003 78.49073719 -12.35288262 78.54347748 -10.87304688 78.59570312 C-7.24839591 78.72377548 -3.62434514 78.86215188 0 79 C0 85.6 0 92.2 0 99 C-3.07837794 100.02612598 -5.16574296 100.12090219 -8.3894043 100.11352539 C-9.49031906 100.11344986 -10.59123383 100.11337433 -11.72550964 100.11329651 C-12.91308365 100.10813522 -14.10065765 100.10297394 -15.32421875 100.09765625 C-17.14902519 100.09553383 -17.14902519 100.09553383 -19.01069641 100.09336853 C-22.9029891 100.08776312 -26.79522464 100.07520967 -30.6875 100.0625 C-33.32356688 100.0574857 -35.95963466 100.05292267 -38.59570312 100.04882812 C-45.06384191 100.03864208 -51.53185685 100.01906757 -58 100 C-58.33 90.43 -58.66 80.86 -59 71 C-61.31 74.63 -63.62 78.26 -66 82 C-70.61145143 87.61758629 -75.27379963 91.0324631 -81.625 94.375 C-82.23915771 94.70910889 -82.85331543 95.04321777 -83.48608398 95.38745117 C-98.62095686 102.83318767 -119.54598826 100 -135 100 C-135.33 72.61 -135.66 45.22 -136 17 C-143.92 28.88 -143.92 28.88 -152 41 C-154.6915625 44.24070312 -154.6915625 44.24070312 -157.4375 47.546875 C-163.48948178 56.21639643 -162.16759669 67.12237152 -162 77.25 C-161.99183132 80.36226788 -161.99595236 83.47433956 -162.00170898 86.58660889 C-162.00058626 88.51084162 -161.98871103 90.43510385 -161.96508789 92.35919189 C-161.95598389 93.21809021 -161.94687988 94.07698853 -161.9375 94.96191406 C-161.92589844 95.71990295 -161.91429687 96.47789185 -161.90234375 97.2588501 C-162 99 -162 99 -163 100 C-164.70772358 100.08713831 -166.41898649 100.10700007 -168.12890625 100.09765625 C-169.16337891 100.09443359 -170.19785156 100.09121094 -171.26367188 100.08789062 C-172.35228516 100.07951172 -173.44089844 100.07113281 -174.5625 100.0625 C-176.2012207 100.05573242 -176.2012207 100.05573242 -177.87304688 100.04882812 C-180.58208495 100.03699826 -183.29101599 100.02051543 -186 100 C-185.87842529 98.83694336 -185.75685059 97.67388672 -185.6315918 96.47558594 C-182.43190365 61.97544263 -191.49178935 41.26113573 -212.67260742 14.33081055 C-222 2.40478716 -222 2.40478716 -222 0 C-217.50167618 -0.32137305 -213.00630841 -0.51538405 -208.5 -0.6875 C-207.2315625 -0.77966797 -205.963125 -0.87183594 -204.65625 -0.96679688 C-195.41764369 -1.23144445 -195.41764369 -1.23144445 -191.53710938 2.1394043 C-189.43457247 4.99511508 -187.70416826 7.89177325 -186 11 C-184.87414844 12.74968146 -183.7391559 14.49352538 -182.59375 16.23046875 C-181.55854013 17.88033449 -180.5272344 19.53265683 -179.5 21.1875 C-178.96375 22.04408203 -178.4275 22.90066406 -177.875 23.78320312 C-176.57975933 25.85327527 -175.28813241 27.92550019 -174 30 C-173.39414062 29.09121094 -172.78828125 28.18242187 -172.1640625 27.24609375 C-167.1640625 19.74609375 -167.1640625 19.74609375 -165.65380859 17.63964844 C-164.28384124 15.45303978 -163.36564559 13.52939647 -162.39697266 11.16503906 C-160.33253819 6.64830078 -158.2064179 2.80991569 -154 0 C-145.06488159 -2.62315495 -135.30677255 -1.53331144 -126.125 -1.125 C-123.57433871 -1.07541911 -121.02354117 -1.03239015 -118.47265625 -0.99609375 C-100.3995293 -0.60741962 -82.54672567 0.45327433 -69 14 C-66.21870612 17.58975041 -63.57881242 21.26268555 -61 25 C-60.01 24.505 -60.01 24.505 -59 24 C-58.67 16.08 -58.34 8.16 -58 0 C-50.73314917 -0.15314352 -43.46624084 -0.30192049 -36.19914436 -0.4429636 C-32.82491975 -0.50862772 -29.4507566 -0.57622188 -26.07666016 -0.64819336 C-22.19962343 -0.72994239 -18.32250733 -0.80508895 -14.4453125 -0.87890625 C-13.23070343 -0.90594131 -12.01609436 -0.93297638 -10.76467896 -0.96083069 C-9.08316238 -0.99097511 -9.08316238 -0.99097511 -7.36767578 -1.02172852 C-6.37728302 -1.04171402 -5.38689026 -1.06169952 -4.3664856 -1.08229065 C-2 -1 -2 -1 0 0 Z M-111 21 C-111 39.81 -111 58.62 -111 78 C-101.11125641 78 -96.17067496 77.55835818 -88.921875 71.16796875 C-81.76376277 63.54367694 -80.4542175 56.67474953 -80.71875 46.3359375 C-81.37974492 38.49580334 -84.74401242 32.78287142 -90 27 C-96.62428608 21.52776367 -102.60517922 21 -111 21 Z " fill="#030303" transform="translate(484,110)"/>
<path d="M0 0 C1.20652725 0.00374634 2.4130545 0.00749268 3.65614319 0.01135254 C6.19690069 0.02474273 8.73761874 0.05247059 11.27807617 0.09375 C15.14476363 0.15600218 19.00981416 0.1756987 22.87695312 0.1875 C25.35548841 0.20584639 27.83400728 0.22659995 30.3125 0.25 C31.4575853 0.25849976 32.60267059 0.26699951 33.78245544 0.27575684 C51.46763097 0.58713251 68.42085134 5.28725029 81.03515625 18.28125 C91.1688186 30.19465951 94.20154657 44.19928706 93.41796875 59.40722656 C91.94442166 76.37512131 83.77702614 91.3360896 71.0234375 102.546875 C54.47964212 116.41336106 33.53633337 125.10350144 11.83984375 124.8515625 C10.89956329 124.8487326 9.95928284 124.84590271 8.99050903 124.84298706 C6.02608798 124.83190978 3.06198394 124.80682951 0.09765625 124.78125 C-1.92838101 124.77120407 -3.95442307 124.76208106 -5.98046875 124.75390625 C-10.9128801 124.73201144 -15.84505843 124.69756957 -20.77734375 124.65625 C-20.77734375 126.63625 -20.77734375 128.61625 -20.77734375 130.65625 C-4.60734375 130.32625 11.56265625 129.99625 28.22265625 129.65625 C28.22265625 129.98625 28.22265625 130.31625 28.22265625 130.65625 C22.48646428 131.6435993 16.94593967 131.78707936 11.1328125 131.75390625 C10.1882872 131.7524913 9.2437619 131.75107635 8.27061462 131.74961853 C5.27542862 131.7440536 2.28031938 131.73150767 -0.71484375 131.71875 C-2.75455621 131.71373046 -4.79426984 131.70916835 -6.83398438 131.70507812 C-11.81513341 131.69409567 -16.7962256 131.6768554 -21.77734375 131.65625 C-23.27891249 128.65311252 -22.87015579 125.86557478 -22.83984375 122.53125 C-22.83082031 121.24992187 -22.82179687 119.96859375 -22.8125 118.6484375 C-22.80089844 117.66101563 -22.78929687 116.67359375 -22.77734375 115.65625 C-22.44734375 115.65625 -22.11734375 115.65625 -21.77734375 115.65625 C-21.77734375 118.29625 -21.77734375 120.93625 -21.77734375 123.65625 C-19.81487118 123.4607132 -19.81487118 123.4607132 -17.77734375 122.65625 C-14.48152729 117.1000367 -14.27202735 110.26575309 -14.12109375 103.97265625 C-14.08858521 103.03571426 -14.05607666 102.09877228 -14.02258301 101.13343811 C-13.92118783 97.97457234 -13.84546981 94.81600443 -13.77734375 91.65625 C-13.7525293 90.51097839 -13.72771484 89.36570679 -13.70214844 88.18572998 C-13.49498354 78.01341542 -13.36044878 67.84021892 -13.22509766 57.66674805 C-13.01157468 41.97672702 -12.66738304 26.32374986 -11.77734375 10.65625 C-16.39734375 10.65625 -21.01734375 10.65625 -25.77734375 10.65625 C-17.45337842 2.33228467 -11.82758871 -0.2546102 0 0 Z M29.22265625 16.65625 C32.74557209 31.53078354 47.7709631 44.4523336 60.0078125 52.484375 C64.31979373 55.47683312 64.31979373 55.47683312 69.22265625 56.65625 C70.08191468 46.77477806 65.33624436 38.86830447 59.484375 31.19921875 C53.33994015 24.2907091 43.30496099 17.6153121 33.97265625 16.3515625 C31.88446967 16.30618779 31.88446967 16.30618779 29.22265625 16.65625 Z M8.22265625 96.65625 C8.02859147 98.30132218 7.8425769 99.94734594 7.66015625 101.59375 C7.55574219 102.51027344 7.45132813 103.42679687 7.34375 104.37109375 C7.30378906 105.12519531 7.26382813 105.87929688 7.22265625 106.65625 C8.77215893 108.20575268 10.32256219 107.87280193 12.4765625 107.97265625 C13.33056641 108.01455078 14.18457031 108.05644531 15.06445312 108.09960938 C15.96228516 108.13892578 16.86011719 108.17824219 17.78515625 108.21875 C18.68685547 108.26193359 19.58855469 108.30511719 20.51757812 108.34960938 C22.7524411 108.45603142 24.98741933 108.55804988 27.22265625 108.65625 C23.50325176 105.55208535 19.6072597 102.9148858 15.47265625 100.40625 C14.88355469 100.04273438 14.29445313 99.67921875 13.6875 99.3046875 C11.13195514 97.4536264 11.13195514 97.4536264 8.22265625 96.65625 Z " fill="#F1F1F1" transform="translate(57.77734375,198.34375)"/>
<path d="M0 0 C3.0625 2.5625 3.0625 2.5625 3.94921875 4.95703125 C4.09858344 8.39241905 3.23659528 9.29931892 0.9375 11.8125 C-6.45998634 19.57210106 -16.77248439 26.97484743 -26.9375 30.5625 C-27.5975 30.2325 -28.2575 29.9025 -28.9375 29.5625 C-28.81375 28.840625 -28.69 28.11875 -28.5625 27.375 C-28.68947453 24.32087314 -28.68947453 24.32087314 -31.375 22 C-50.57275137 7.66928419 -82.71210085 7.93839895 -105.58642578 11.06054688 C-131.3081647 15.62002827 -156.77341156 27.34297649 -172.9375 48.5625 C-186.82678512 68.6724688 -195.13565161 91.75397148 -195.0703125 116.33984375 C-195.07126923 117.15062881 -195.07222595 117.96141388 -195.07321167 118.79676819 C-195.07388779 120.50017373 -195.07207343 122.20358193 -195.06787109 123.90698242 C-195.06252179 126.48948051 -195.06783191 129.07180416 -195.07421875 131.65429688 C-195.07355773 133.32031288 -195.07227608 134.98632877 -195.0703125 136.65234375 C-195.07233673 137.41199936 -195.07436096 138.17165497 -195.07644653 138.95433044 C-195.05383015 144.22275489 -194.58950846 149.3338065 -193.9375 154.5625 C-195.24203125 154.4696875 -196.5465625 154.376875 -197.890625 154.28125 C-210.0361655 153.68373777 -216.44443353 154.57677854 -225.9375 162.5625 C-227.25846093 163.25335776 -228.59015003 163.92463616 -229.9375 164.5625 C-229.98763226 159.95843013 -230.0235587 155.35452555 -230.04736328 150.75024414 C-230.05730628 149.18999457 -230.07086547 147.62976304 -230.08837891 146.06958008 C-230.23066828 133.05010225 -229.0835255 120.81350159 -225.6875 108.1875 C-225.47134033 107.38151367 -225.25518066 106.57552734 -225.0324707 105.74511719 C-218.57635944 82.44327391 -206.62208406 61.97615832 -189.9375 44.5625 C-189.11894531 43.66917969 -188.30039063 42.77585938 -187.45703125 41.85546875 C-167.97719542 21.28223002 -140.15935659 11.54720894 -113.9375 2.5625 C-113.0393457 2.25441406 -112.14119141 1.94632813 -111.21582031 1.62890625 C-79.28733954 -9.10876183 -31.34143466 -17.60879191 0 0 Z " fill="#030303" transform="translate(257.9375,38.4375)"/>
<path d="M0 0 C7.59 0.33 15.18 0.66 23 1 C23 33.67 23 66.34 23 100 C19.8225772 100.7943557 17.66935596 101.12814475 14.48828125 101.1328125 C13.64845703 101.13410156 12.80863281 101.13539063 11.94335938 101.13671875 C10.64108398 101.13091797 10.64108398 101.13091797 9.3125 101.125 C8.43271484 101.12886719 7.55292969 101.13273437 6.64648438 101.13671875 C5.81052734 101.13542969 4.97457031 101.13414062 4.11328125 101.1328125 C3.34798096 101.13168457 2.58268066 101.13055664 1.79418945 101.12939453 C0 101 0 101 -1 100 C-1.08865208 97.1156618 -1.11521296 94.25537842 -1.09765625 91.37109375 C-1.0962413 90.50686295 -1.09482635 89.64263214 -1.09336853 88.75221252 C-1.08775239 85.98060708 -1.07519719 83.2090812 -1.0625 80.4375 C-1.05748708 78.5631522 -1.05292381 76.68880315 -1.04882812 74.81445312 C-1.03862681 70.20957979 -1.01905467 65.6048794 -1 61 C-11.23 61 -21.46 61 -32 61 C-31.87431641 65.07988281 -31.87431641 65.07988281 -31.74609375 69.2421875 C-31.66873908 71.86991985 -31.59319225 74.49769835 -31.51782227 77.12548828 C-31.46437705 78.95497166 -31.40904575 80.78440093 -31.35180664 82.61376953 C-31.26996589 85.23979016 -31.19485904 87.86592919 -31.12109375 90.4921875 C-31.09405869 91.31306854 -31.06702362 92.13394958 -31.03916931 92.97970581 C-30.88612829 98.77225659 -30.88612829 98.77225659 -32 101 C-34.10409639 101.02701408 -36.20829178 101.04640223 -38.3125 101.0625 C-39.48425781 101.07410156 -40.65601563 101.08570313 -41.86328125 101.09765625 C-45 101 -45 101 -48 100 C-47.67 101.32 -47.34 102.64 -47 104 C-50.23861303 102.55575365 -52.61969163 100.74227753 -55.25 98.375 C-56.30960938 97.42753906 -56.30960938 97.42753906 -57.390625 96.4609375 C-57.92171875 95.97882813 -58.4528125 95.49671875 -59 95 C-58.01 95 -57.02 95 -56 95 C-55.67 63.98 -55.34 32.96 -55 1 C-47.41 1 -39.82 1 -32 1 C-30.63016161 3.73967679 -30.87031405 5.94011099 -30.8671875 9.00390625 C-30.86589844 10.22013672 -30.86460937 11.43636719 -30.86328125 12.68945312 C-30.86714844 13.96755859 -30.87101562 15.24566406 -30.875 16.5625 C-30.86919922 18.43905273 -30.86919922 18.43905273 -30.86328125 20.35351562 C-30.86457031 21.57876953 -30.86585938 22.80402344 -30.8671875 24.06640625 C-30.86831543 25.17959229 -30.86944336 26.29277832 -30.87060547 27.43969727 C-31.02328114 31.64058273 -31.53578353 35.82205175 -32 40 C-21.77 40 -11.54 40 -1 40 C-1.01160156 37.19628906 -1.02320313 34.39257812 -1.03515625 31.50390625 C-1.04294633 28.80004998 -1.04902337 26.09619494 -1.05493164 23.39233398 C-1.05997244 21.5075627 -1.06680498 19.62279535 -1.07543945 17.73803711 C-1.08751617 15.03498364 -1.09323068 12.33198169 -1.09765625 9.62890625 C-1.10281754 8.78099014 -1.10797882 7.93307404 -1.11329651 7.0594635 C-1.11349195 5.03928932 -1.06206211 3.01922066 -1 1 C-0.67 0.67 -0.34 0.34 0 0 Z " fill="#040404" transform="translate(192,109)"/>
<path d="M0 0 C1.20652725 0.00374634 2.4130545 0.00749268 3.65614319 0.01135254 C6.19690069 0.02474273 8.73761874 0.05247059 11.27807617 0.09375 C15.14476363 0.15600218 19.00981416 0.1756987 22.87695312 0.1875 C25.35548841 0.20584639 27.83400728 0.22659995 30.3125 0.25 C31.4575853 0.25849976 32.60267059 0.26699951 33.78245544 0.27575684 C51.46763097 0.58713251 68.42085134 5.28725029 81.03515625 18.28125 C91.1688186 30.19465951 94.20154657 44.19928706 93.41796875 59.40722656 C91.94442166 76.37512131 83.77702614 91.3360896 71.0234375 102.546875 C54.47964212 116.41336106 33.53633337 125.10350144 11.83984375 124.8515625 C10.89956329 124.8487326 9.95928284 124.84590271 8.99050903 124.84298706 C6.02608798 124.83190978 3.06198394 124.80682951 0.09765625 124.78125 C-1.92838101 124.77120407 -3.95442307 124.76208106 -5.98046875 124.75390625 C-10.9128801 124.73201144 -15.84505843 124.69756957 -20.77734375 124.65625 C-20.77734375 126.63625 -20.77734375 128.61625 -20.77734375 130.65625 C-4.60734375 130.32625 11.56265625 129.99625 28.22265625 129.65625 C28.22265625 129.98625 28.22265625 130.31625 28.22265625 130.65625 C22.48646428 131.6435993 16.94593967 131.78707936 11.1328125 131.75390625 C10.1882872 131.7524913 9.2437619 131.75107635 8.27061462 131.74961853 C5.27542862 131.7440536 2.28031938 131.73150767 -0.71484375 131.71875 C-2.75455621 131.71373046 -4.79426984 131.70916835 -6.83398438 131.70507812 C-11.81513341 131.69409567 -16.7962256 131.6768554 -21.77734375 131.65625 C-23.27891249 128.65311252 -22.87015579 125.86557478 -22.83984375 122.53125 C-22.83082031 121.24992187 -22.82179687 119.96859375 -22.8125 118.6484375 C-22.80089844 117.66101563 -22.78929687 116.67359375 -22.77734375 115.65625 C-22.44734375 115.65625 -22.11734375 115.65625 -21.77734375 115.65625 C-21.77734375 118.29625 -21.77734375 120.93625 -21.77734375 123.65625 C-19.81487118 123.4607132 -19.81487118 123.4607132 -17.77734375 122.65625 C-14.48152729 117.1000367 -14.27202735 110.26575309 -14.12109375 103.97265625 C-14.08858521 103.03571426 -14.05607666 102.09877228 -14.02258301 101.13343811 C-13.92118783 97.97457234 -13.84546981 94.81600443 -13.77734375 91.65625 C-13.7525293 90.51097839 -13.72771484 89.36570679 -13.70214844 88.18572998 C-13.49498354 78.01341542 -13.36044878 67.84021892 -13.22509766 57.66674805 C-13.01157468 41.97672702 -12.66738304 26.32374986 -11.77734375 10.65625 C-16.39734375 10.65625 -21.01734375 10.65625 -25.77734375 10.65625 C-17.45337842 2.33228467 -11.82758871 -0.2546102 0 0 Z M2.22265625 8.65625 C2.10457263 10.3419389 2.05529712 12.03249265 2.03320312 13.72216797 C2.01642517 14.81153152 1.99964722 15.90089508 1.98236084 17.02326965 C1.96884583 18.21957504 1.95533081 19.41588043 1.94140625 20.6484375 C1.92354065 21.88530807 1.90567505 23.12217865 1.88726807 24.39653015 C1.84901073 27.05781387 1.81242332 29.71906815 1.77819824 32.38040161 C1.72409145 36.52319541 1.65874501 40.66576212 1.59082031 44.80834961 C1.32327884 61.1423611 1.32327884 61.1423611 1.13842773 77.47747803 C1.10704178 80.6795308 1.05774711 83.88110003 1.00268555 87.08282471 C0.98296484 88.48551981 0.97178854 89.88836618 0.9699707 91.29119873 C0.95577222 100.21794859 -0.37991413 106.83401529 -4.77734375 114.65625 C2.35027293 115.80162601 9.41022382 115.91359857 16.61791992 115.95141602 C18.13722062 115.96290503 19.65648194 115.98330814 21.17553711 116.01293945 C37.34188174 116.32717289 50.71073696 112.84524144 62.91015625 101.59375 C74.30542108 89.59342686 77.73339615 75.51209533 77.64477539 59.50268555 C77.23330895 44.39984357 71.58512975 32.07300284 60.6328125 21.6875 C50.25017903 12.9371444 37.35067992 7.537452 23.765625 7.5234375 C22.57130859 7.52214844 21.37699219 7.52085937 20.14648438 7.51953125 C18.91349609 7.52339844 17.68050781 7.52726563 16.41015625 7.53125 C14.53166992 7.52544922 14.53166992 7.52544922 12.61523438 7.51953125 C11.42736328 7.52082031 10.23949219 7.52210938 9.015625 7.5234375 C7.92789795 7.52456543 6.8401709 7.52569336 5.71948242 7.52685547 C3.28191852 7.37379991 3.28191852 7.37379991 2.22265625 8.65625 Z " fill="#060606" transform="translate(57.77734375,198.34375)"/>
<path d="M0 0 C7.59 0 15.18 0 23 0 C23 26.07 23 52.14 23 79 C34.22 79 45.44 79 57 79 C57.495 89.395 57.495 89.395 58 100 C50.45501411 100.02255549 42.91004069 100.04091769 35.36502934 100.05181217 C31.86191115 100.05703989 28.35881715 100.0641355 24.85571289 100.07543945 C20.83219159 100.08834206 16.80869586 100.09322912 12.78515625 100.09765625 C11.52163834 100.10281754 10.25812042 100.10797882 8.95631409 100.11329651 C7.795186 100.11337204 6.63405792 100.11344757 5.43774414 100.11352539 C3.8955294 100.11685631 3.8955294 100.11685631 2.32215881 100.12025452 C0 100 0 100 -1 99 C-1.10064199 95.96134239 -1.1361459 92.9453727 -1.12939453 89.90625 C-1.13114685 88.95186035 -1.13289917 87.9974707 -1.13470459 87.01416016 C-1.13912487 83.84275523 -1.1361845 80.67140555 -1.1328125 77.5 C-1.13348549 75.30664052 -1.13445547 73.1132811 -1.13571167 70.91992188 C-1.13718888 66.31639905 -1.13503334 61.71289558 -1.13037109 57.109375 C-1.1246738 51.19395405 -1.12795268 45.27857846 -1.13394356 39.36315918 C-1.13754854 34.83202774 -1.13641087 30.30090715 -1.13381577 25.76977539 C-1.13314632 23.58797195 -1.13397552 21.40616754 -1.13629532 19.22436523 C-1.13882082 16.1808001 -1.1349827 13.13730954 -1.12939453 10.09375 C-1.13141876 9.18254395 -1.13344299 8.27133789 -1.13552856 7.33251953 C-1.11426229 1.11426229 -1.11426229 1.11426229 0 0 Z " fill="#040403" transform="translate(217,110)"/>
<path d="M0 0 C0.99 0 1.98 0 3 0 C3.40089844 1.00417969 3.80179687 2.00835937 4.21484375 3.04296875 C15.16304437 29.68479108 34.24747205 46.91207872 60 59 C58.21543238 69.22070543 53.8962825 78.02383517 46 85 C43.73828125 86.3984375 43.73828125 86.3984375 41 87 C38.34170144 86.2088758 36.16033359 85.37311757 33.6875 84.1875 C32.99253418 83.8670874 32.29756836 83.5466748 31.58154297 83.21655273 C26.50996193 80.83130161 21.53738149 78.25925009 16.625 75.5625 C16.00842529 75.22822998 15.39185059 74.89395996 14.7565918 74.54956055 C12.78878571 73.43281039 10.90475888 72.2215128 9 71 C8.16078003 70.51075546 7.32156006 70.02151093 6.45690918 69.5174408 C2.35280045 66.79013757 -0.53624124 64.74008549 -1.8397522 59.84913635 C-2.06024717 56.01676848 -1.97119337 52.26352774 -1.7578125 48.4375 C-1.71665714 47.0365818 -1.68001712 45.63552436 -1.64767456 44.234375 C-1.55105783 40.56903925 -1.39371564 36.90881329 -1.2230835 33.24627686 C-1.05950175 29.49998006 -0.95417135 25.75207981 -0.84375 22.00390625 C-0.61908544 14.66649428 -0.33016464 7.33350337 0 0 Z " fill="#020202" transform="translate(67,213)"/>
<path d="M0 0 C-26.82079685 20.35337066 -57.01324113 37.46266244 -91.5 37.25 C-93.38138672 37.26160156 -93.38138672 37.26160156 -95.30078125 37.2734375 C-102.44068953 37.25848481 -109.072283 36.77023735 -116 35 C-115.21625 34.13375 -114.4325 33.2675 -113.625 32.375 C-110.46381344 28.68442813 -107.59156264 24.8128731 -104.75 20.875 C-104.09572021 19.9785376 -104.09572021 19.9785376 -103.42822266 19.06396484 C-101.11662182 15.82700495 -99.28121725 12.772473 -98 9 C-96.22880197 9.14133499 -94.45804713 9.28823208 -92.6875 9.4375 C-91.70136719 9.51871094 -90.71523437 9.59992188 -89.69921875 9.68359375 C-87 10 -87 10 -84 11 C-63.81981768 12.58219533 -43.32451501 9.75268373 -23.625 5.5625 C-22.2627832 5.27306519 -22.2627832 5.27306519 -20.87304688 4.9777832 C-15.11239581 3.67419676 -9.71473389 1.87576263 -4.22802734 -0.31274414 C-2 -1 -2 -1 0 0 Z " fill="#030303" transform="translate(249,271)"/>
<path d="M0 0 C0.99 0.33 1.98 0.66 3 1 C3 11.23 3 21.46 3 32 C1.02 32.495 1.02 32.495 -1 33 C-7.435 24.585 -7.435 24.585 -14 16 C-15.71468141 19.42936281 -15.34854116 23.36445731 -15.5234375 27.15234375 C-16.03577707 30.21378263 -16.58353503 31.14565389 -19 33 C-20.32 32.34 -21.64 31.68 -23 31 C-23 21.43 -23 11.86 -23 2 C-21.35 1.67 -19.7 1.34 -18 1 C-17.39671875 1.74765625 -16.7934375 2.4953125 -16.171875 3.265625 C-15.37265625 4.25046875 -14.5734375 5.2353125 -13.75 6.25 C-12.96109375 7.22453125 -12.1721875 8.1990625 -11.359375 9.203125 C-9.33534195 11.60247544 -7.25877651 13.82411437 -5 16 C-4.67 14.02 -4.34 12.04 -4 10 C-3.34 10 -2.68 10 -2 10 C-2 12.31 -2 14.62 -2 17 C-1.67 12.71 -1.34 8.42 -1 4 C-1.66 3.67 -2.32 3.34 -3 3 C-2.34 3 -1.68 3 -1 3 C-0.67 2.01 -0.34 1.02 0 0 Z M-2 21 C-1 23 -1 23 -1 23 Z " fill="#0D0C0B" transform="translate(408,220)"/>
<path d="M0 0 C-0.33 1.65 -0.66 3.3 -1 5 C-1.89203125 4.94199219 -2.7840625 4.88398438 -3.703125 4.82421875 C-4.87359375 4.77910156 -6.0440625 4.73398438 -7.25 4.6875 C-8.99023438 4.60048828 -8.99023438 4.60048828 -10.765625 4.51171875 C-14.17359203 4.70143331 -14.17359203 4.70143331 -16.421875 7.39453125 C-18.17269144 9.77742249 -18.17269144 9.77742249 -18 12 C-18.66 12 -19.32 12 -20 12 C-18.74689596 19.01318235 -18.74689596 19.01318235 -14 24 C-10.57918001 24.72017263 -7.4890167 25 -4 25 C-4 23.68 -4 22.36 -4 21 C-4.99 21 -5.98 21 -7 21 C-7 20.34 -7 19.68 -7 19 C-8.32 18.67 -9.64 18.34 -11 18 C-10.67 16.35 -10.34 14.7 -10 13 C-8.18757948 12.97312721 -6.37504767 12.95366285 -4.5625 12.9375 C-3.55316406 12.92589844 -2.54382813 12.91429687 -1.50390625 12.90234375 C1 13 1 13 2 14 C2.15193163 16.12119924 2.22183514 18.24855315 2.25 20.375 C2.27578125 21.53773438 2.3015625 22.70046875 2.328125 23.8984375 C2 27 2 27 0.58984375 28.87109375 C-3.34139918 31.662566 -8.34379811 31.59889553 -13 31 C-17.42899734 29.59587947 -20.35147985 27.73166376 -23.4375 24.25 C-25.30258915 20.37061456 -25.7525743 17.24036466 -26 13 C-26.185625 11.989375 -26.37125 10.97875 -26.5625 9.9375 C-25.62584594 5.04608436 -21.95383293 2.74170896 -18 0 C-12.70614167 -2.76201304 -5.40704861 -2.70352431 0 0 Z M-5 18 C-4 20 -4 20 -4 20 Z " fill="#0E0D0C" transform="translate(350,222)"/>
<path d="M0 0 C6.27 0 12.54 0 19 0 C19.33 1.32 19.66 2.64 20 4 C19 5 19 5 15.83984375 5.09765625 C13.90818359 5.08025391 13.90818359 5.08025391 11.9375 5.0625 C10.64714844 5.05347656 9.35679687 5.04445312 8.02734375 5.03515625 C7.02832031 5.02355469 6.02929688 5.01195312 5 5 C5.33 7.31 5.66 9.62 6 12 C9.63 12.33 13.26 12.66 17 13 C17.33 14.32 17.66 15.64 18 17 C17 18 17 18 14.27734375 18.09765625 C13.17519531 18.08605469 12.07304687 18.07445312 10.9375 18.0625 C9.28041016 18.04896484 9.28041016 18.04896484 7.58984375 18.03515625 C6.73519531 18.02355469 5.88054687 18.01195312 5 18 C5 20.64 5 23.28 5 26 C6.37285156 25.98259766 6.37285156 25.98259766 7.7734375 25.96484375 C9.55621094 25.95130859 9.55621094 25.95130859 11.375 25.9375 C12.55835938 25.92589844 13.74171875 25.91429687 14.9609375 25.90234375 C18 26 18 26 20 27 C20 28.32 20 29.64 20 31 C16.71646451 32.64176774 13.10480362 32.18454039 9.5 32.1875 C8.71496094 32.19974609 7.92992187 32.21199219 7.12109375 32.22460938 C5.07936274 32.22986254 3.03807749 32.1222018 1 32 C-1 30 -1 30 -1.24291992 27.234375 C-1.23881104 26.08453125 -1.23470215 24.9346875 -1.23046875 23.75 C-1.22853516 22.5021875 -1.22660156 21.254375 -1.22460938 19.96875 C-1.21236328 18.6590625 -1.20011719 17.349375 -1.1875 16 C-1.18685547 14.6903125 -1.18621094 13.380625 -1.18554688 12.03125 C-1.14021767 2.28043535 -1.14021767 2.28043535 0 0 Z " fill="#0C0B0A" transform="translate(178,221)"/>
<path d="M0 0 C2.625 1.75 2.625 1.75 3.5 3.9375 C3.54125 4.535625 3.5825 5.13375 3.625 5.75 C-0.34243984 6.85206662 -1.79065275 6.54217362 -5.375 4.75 C-8.06493053 5.05378052 -8.06493053 5.05378052 -10.375 5.75 C-10.375 7.4 -10.375 9.05 -10.375 10.75 C-9.61574219 11.00394531 -8.85648437 11.25789062 -8.07421875 11.51953125 C-7.08035156 11.86371094 -6.08648437 12.20789063 -5.0625 12.5625 C-3.58330078 13.06716797 -3.58330078 13.06716797 -2.07421875 13.58203125 C0.56017472 14.7219497 1.9685277 15.43093878 3.625 17.75 C4.2478087 20.79671283 4.13443248 23.68786782 3.625 26.75 C1.42668636 29.78215675 0.17536806 30.56654398 -3.375 31.75 C-8.96591456 32.11661735 -12.56056761 31.95962159 -17.375 28.75 C-18.75 26.5625 -18.75 26.5625 -19.375 24.75 C-17.725 23.76 -16.075 22.77 -14.375 21.75 C-13.715 22.41 -13.055 23.07 -12.375 23.75 C-11.385 23.75 -10.395 23.75 -9.375 23.75 C-9.375 24.74 -9.375 25.73 -9.375 26.75 C-7.065 26.09 -4.755 25.43 -2.375 24.75 C-2.45121488 22.30045938 -2.45121488 22.30045938 -3.375 19.75 C-5.79768902 18.37845737 -5.79768902 18.37845737 -8.75 17.625 C-14.94267688 15.7786346 -14.94267688 15.7786346 -17.375 12.75 C-18.8533226 9.79335481 -18.43532783 7.00770263 -18.375 3.75 C-17.715 3.75 -17.055 3.75 -16.375 3.75 C-16.045 2.76 -15.715 1.77 -15.375 0.75 C-10.28494111 -2.09444467 -5.38344293 -1.99386775 0 0 Z " fill="#0F0E0D" transform="translate(463.375,221.25)"/>
<path d="M0 0 C2.625 2.0625 2.625 2.0625 4 4 C3.67 4.99 3.34 5.98 3 7 C0.08817396 6.52598181 -2.76941139 6.06039225 -5.625 5.3125 C-8.43811781 4.94235292 -9.63583538 5.51145191 -12 7 C-12 8.32 -12 9.64 -12 11 C-11.26394531 11.17015625 -10.52789062 11.3403125 -9.76953125 11.515625 C1.01733387 14.19452941 1.01733387 14.19452941 4 18 C4.51780959 21.2622004 4.77909754 22.93230345 4 26 C1.82425584 28.69105198 0.08934144 30.45532928 -3 32 C-8.66210888 32.37747393 -12.04634711 32.06654703 -17 29 C-17.66 28.34 -18.32 27.68 -19 27 C-18.625 24.875 -18.625 24.875 -18 23 C-15.79721596 23.47202515 -14.11434748 23.9290257 -12.1875 25.125 C-8.96281256 26.41487498 -6.34187382 25.64266804 -3 25 C-2.67 23.68 -2.34 22.36 -2 21 C-2.81984375 20.68546875 -3.6396875 20.3709375 -4.484375 20.046875 C-5.56203125 19.61890625 -6.6396875 19.1909375 -7.75 18.75 C-9.35101563 18.12351563 -9.35101563 18.12351563 -10.984375 17.484375 C-14.04805024 15.97634833 -15.86742062 14.64926132 -18 12 C-18.5625 8.5625 -18.5625 8.5625 -18 5 C-12.78318046 -1.48577564 -7.73197218 -1.69571894 0 0 Z " fill="#100F0E" transform="translate(248,221)"/>
<path d="M0 0 C0.99 0.66 1.98 1.32 3 2 C3.34057617 4.98095703 3.34057617 4.98095703 3.29296875 8.7578125 C3.28872391 9.42086395 3.28447906 10.08391541 3.28010559 10.76705933 C3.26329971 12.88678441 3.22564701 15.00556188 3.1875 17.125 C3.17245549 18.56118419 3.15876668 19.99738328 3.14648438 21.43359375 C3.1133909 24.95603764 3.0615968 28.47792636 3 32 C1.02 32.495 1.02 32.495 -1 33 C-3.67505498 27.18130614 -3.33035835 21.67542684 -3.3125 15.375 C-3.32861328 14.2303125 -3.34472656 13.085625 -3.36132812 11.90625 C-3.36197266 10.81054688 -3.36261719 9.71484375 -3.36328125 8.5859375 C-3.36626221 7.5861084 -3.36924316 6.5862793 -3.37231445 5.55615234 C-2.94894848 2.649502 -2.27862624 1.77515189 0 0 Z " fill="#131211" transform="translate(288,220)"/>
<path d="M0 0 C2.64 0 5.28 0 8 0 C8 7.59 8 15.18 8 23 C2.46711897 17.46711897 0.44884545 7.63037257 0 0 Z " fill="#111111" transform="translate(31,216)"/>
<path d="M0 0 C2.475 0.495 2.475 0.495 5 1 C4.01 1.495 4.01 1.495 3 2 C2.53348793 4.12576782 2.53348793 4.12576782 2.375 6.5625 C2.25125 8.026875 2.1275 9.49125 2 11 C7.61 11.33 13.22 11.66 19 12 C18.67 11.34 18.34 10.68 18 10 C20.475 10.495 20.475 10.495 23 11 C23 11.99 23 12.98 23 14 C19.35418313 14.02887512 15.70839537 14.04675585 12.0625 14.0625 C10.50112305 14.07506836 10.50112305 14.07506836 8.90820312 14.08789062 C7.91884766 14.09111328 6.92949219 14.09433594 5.91015625 14.09765625 C4.99371338 14.10289307 4.07727051 14.10812988 3.13305664 14.11352539 C1 14 1 14 0 13 C-0.07258946 10.81360547 -0.08373783 8.62499611 -0.0625 6.4375 C-0.05347656 5.23996094 -0.04445312 4.04242188 -0.03515625 2.80859375 C-0.02355469 1.88175781 -0.01195312 0.95492188 0 0 Z " fill="#6C6C6A" transform="translate(64,294)"/>
<path d="M0 0 C0.66 0.33 1.32 0.66 2 1 C-7.76873265 12.47826087 -7.76873265 12.47826087 -13 17 C-13.66 17 -14.32 17 -15 17 C-13.67879172 14.06769807 -12.25361803 12.01335101 -9.9609375 9.765625 C-9.38085938 9.19199219 -8.80078125 8.61835937 -8.203125 8.02734375 C-7.59984375 7.44082031 -6.9965625 6.85429688 -6.375 6.25 C-5.76398437 5.64800781 -5.15296875 5.04601562 -4.5234375 4.42578125 C-3.02011376 2.94594695 -1.51065144 1.47235324 0 0 Z " fill="#AEADAB" transform="translate(67,62)"/>
<path d="M0 0 C0.33 0 0.66 0 1 0 C1.33 3.96 1.66 7.92 2 12 C0.35 10.68 -1.3 9.36 -3 8 C-2.5359375 7.13375 -2.5359375 7.13375 -2.0625 6.25 C-1.07416636 4.15705816 -0.4831387 2.25464725 0 0 Z " fill="#797976" transform="translate(14,207)"/>
<path d="M0 0 C1.65 0.33 3.3 0.66 5 1 C4.67 2.65 4.34 4.3 4 6 C1.03 5.505 1.03 5.505 -2 5 C-0.68 4.67 0.64 4.34 2 4 C1.34 2.68 0.68 1.36 0 0 Z " fill="#1C1C1A" transform="translate(345,221)"/>
<path d="M0 0 C0.66 0 1.32 0 2 0 C2 3.3 2 6.6 2 10 C1.34 10 0.68 10 0 10 C-1.2380014 6.42355152 -0.74926071 3.66305234 0 0 Z " fill="#010101" transform="translate(404,230)"/>
<path d="M0 0 C0.33 0.66 0.66 1.32 1 2 C1.763125 1.649375 2.52625 1.29875 3.3125 0.9375 C6 0 6 0 9 1 C5.27034861 3.03435531 3.33094958 4 -1 4 C-0.67 2.68 -0.34 1.36 0 0 Z " fill="#535251" transform="translate(186,99)"/>
<path d="M0 0 C0.33 0 0.66 0 1 0 C1 2.64 1 5.28 1 8 C0.67 8 0.34 8 0 8 C0 5.36 0 2.72 0 0 Z " fill="#010101" transform="translate(483,159)"/>
<path d="M0 0 C0.33 0 0.66 0 1 0 C1 2.31 1 4.62 1 7 C0.67 7 0.34 7 0 7 C0 4.69 0 2.38 0 0 Z " fill="#010101" transform="translate(275,202)"/>
<path d="" fill="#010101" transform="translate(0,0)"/>
<path d="M0 0 C2 1 2 1 2 1 Z " fill="#010101" transform="translate(455,240)"/>
<path d="M0 0 C2 1 2 1 2 1 Z " fill="#010101" transform="translate(460,233)"/>
<path d="" fill="#010101" transform="translate(0,0)"/>
<path d="" fill="#010101" transform="translate(0,0)"/>
<path d="" fill="#010101" transform="translate(0,0)"/>
<path d="" fill="#010101" transform="translate(0,0)"/>
<path d="" fill="#010101" transform="translate(0,0)"/>
<path d="" fill="#010101" transform="translate(0,0)"/>
<path d="" fill="#010101" transform="translate(0,0)"/>
<path d="" fill="#010101" transform="translate(0,0)"/>
<path d="" fill="#010101" transform="translate(0,0)"/>
<path d="" fill="#010101" transform="translate(0,0)"/>
<path d="" fill="#010101" transform="translate(0,0)"/>
</svg>
